<svg xmlns="http://www.w3.org/2000/svg" aria-hidden="true" style="position:absolute;width:0;height:0;overflow:hidden">
  <defs>
    <symbol id="basket" viewBox="0 0 32 32">
      <path d="M4.905 3.765H0V0h8.271l.845 7.529h21.002v11.178L7.096 23.283 4.906 3.764zM29.176 32a2.824 2.824 0 1 1 0-5.648 2.824 2.824 0 0 1 0 5.648zm-18.823 0a2.824 2.824 0 1 1 0-5.648 2.824 2.824 0 0 1 0 5.648z"/>
    </symbol>
    <symbol id="facebook" viewBox="0 0 19 32">
      <path d="m16.542 18.4.817-5.367h-5.192v-3.5c0-1.517.7-2.917 3.033-2.917h2.392V2.008s-2.158-.408-4.2-.408c-4.258 0-7.058 2.625-7.058 7.292v4.142H1.551v5.367h4.783v13.067h5.833V18.401h4.375z"/>
    </symbol>
    <symbol id="instagram" viewBox="0 0 30 32">
      <path d="M15.111 8.191c-4.222 0-7.587 3.431-7.587 7.587a7.547 7.547 0 0 0 7.587 7.587c4.156 0 7.587-3.365 7.587-7.587 0-4.156-3.431-7.587-7.587-7.587zm0 12.535a4.941 4.941 0 0 1-4.948-4.948c0-2.705 2.177-4.882 4.948-4.882a4.87 4.87 0 0 1 4.882 4.882c0 2.771-2.177 4.948-4.882 4.948zm9.632-12.799c0-.99-.792-1.781-1.781-1.781s-1.781.792-1.781 1.781.792 1.781 1.781 1.781c.99 0 1.781-.792 1.781-1.781zm5.014 1.781c-.132-2.375-.66-4.486-2.375-6.201s-3.826-2.243-6.201-2.375C18.74 1 11.417 1 8.976 1.132c-2.375.132-4.42.66-6.201 2.375C1.06 5.222.532 7.333.4 9.708c-.132 2.441-.132 9.764 0 12.205.132 2.375.66 4.42 2.375 6.201 1.781 1.715 3.826 2.243 6.201 2.375 2.441.132 9.764.132 12.205 0 2.375-.132 4.486-.66 6.201-2.375 1.715-1.781 2.243-3.826 2.375-6.201.132-2.441.132-9.764 0-12.205zM26.59 24.486c-.462 1.319-1.517 2.309-2.771 2.837-1.979.792-6.597.594-8.708.594-2.177 0-6.795.198-8.708-.594a5.003 5.003 0 0 1-2.837-2.837c-.792-1.913-.594-6.531-.594-8.708 0-2.111-.198-6.729.594-8.708a5.09 5.09 0 0 1 2.837-2.771c1.913-.792 6.531-.594 8.708-.594 2.111 0 6.729-.198 8.708.594 1.253.462 2.243 1.517 2.771 2.771.792 1.979.594 6.597.594 8.708 0 2.177.198 6.795-.594 8.708z"/>
    </symbol>
    <symbol id="linkedin" viewBox="0 0 32 32">
      <path d="M7.654 32V11.875h-6.26V32h6.26zM4.49 9.183c2.019 0 3.635-1.683 3.635-3.702 0-1.952-1.615-3.567-3.635-3.567-1.952 0-3.567 1.615-3.567 3.567 0 2.019 1.615 3.702 3.567 3.702zM31.01 32h.067V20.962c0-5.385-1.212-9.558-7.538-9.558-3.029 0-5.048 1.683-5.923 3.231h-.067v-2.76h-5.99V32h6.26v-9.962c0-2.625.471-5.115 3.702-5.115s3.298 2.962 3.298 5.317V32h6.192z"/>
    </symbol>
    <symbol id="icon-of-logo" viewBox="0 0 29 32">
      <path d="M4.073 25.6H28V0H4.006C1.796.007.007 1.814 0 4.045v23.572h.001l-.001.03C0 30.007 1.835 32 4.006 32H28v-2.133H4.006c-.991 0-1.893-1.058-1.893-2.22 0-1.109.897-2.047 1.959-2.047zM6.34 2.155h6.34v11.521l-3.196-2.833-3.143 2.816V2.154zM2.113 4.061a1.913 1.913 0 0 1 1.893-1.928h.22v14.4h2.089l3.175-2.844 3.208 2.844h2.093v-14.4h11.094v21.333H4.071c-.687 0-1.362.181-1.959.525V4.06h-.001z"/>
    </symbol>
    <symbol id="name-of-logo" viewBox="0 0 94 32">
      <path d="M.023 24V.727h9.182c1.765 0 3.269.337 4.511 1.011 1.242.667 2.189 1.595 2.841 2.784.659 1.182.989 2.546.989 4.091s-.333 2.909-1 4.091c-.667 1.182-1.633 2.102-2.898 2.761-1.258.659-2.78.989-4.568.989H3.228v-3.943h5.057c.947 0 1.727-.163 2.341-.489.621-.333 1.083-.792 1.386-1.375.311-.591.466-1.269.466-2.034 0-.773-.155-1.447-.466-2.023-.303-.583-.765-1.034-1.386-1.352-.621-.326-1.409-.489-2.364-.489H4.944v19.25H.024zm25.136.33c-1.114 0-2.106-.193-2.977-.58a4.786 4.786 0 0 1-2.068-1.739c-.5-.773-.75-1.735-.75-2.886 0-.97.178-1.784.534-2.443s.841-1.189 1.454-1.591a7.062 7.062 0 0 1 2.091-.909 15.975 15.975 0 0 1 2.477-.432 62.48 62.48 0 0 0 2.454-.295c.621-.098 1.072-.242 1.352-.432s.42-.47.42-.841v-.068c0-.72-.227-1.276-.682-1.67-.447-.394-1.083-.591-1.909-.591-.871 0-1.564.193-2.08.58-.515.379-.856.856-1.023 1.432l-4.477-.364c.227-1.061.674-1.977 1.341-2.75.667-.78 1.526-1.379 2.58-1.795 1.061-.424 2.288-.636 3.682-.636.97 0 1.898.114 2.784.341a7.28 7.28 0 0 1 2.375 1.057 5.14 5.14 0 0 1 1.648 1.841c.401.742.602 1.633.602 2.671v11.773h-4.591v-2.42h-.136a4.913 4.913 0 0 1-1.125 1.443 5.215 5.215 0 0 1-1.693.966c-.659.227-1.42.341-2.284.341zm1.387-3.341c.712 0 1.341-.14 1.886-.42.546-.288.974-.674 1.284-1.159s.466-1.034.466-1.648V15.91a2.65 2.65 0 0 1-.625.273c-.258.076-.549.148-.875.216a48.78 48.78 0 0 1-.977.171l-.886.125c-.568.083-1.064.216-1.489.398s-.754.428-.989.739c-.235.303-.352.682-.352 1.136 0 .659.239 1.163.716 1.511.485.341 1.099.511 1.841.511zm20.062 9.92c-1.568 0-2.913-.216-4.034-.648-1.114-.424-2-1.004-2.659-1.739s-1.087-1.561-1.284-2.477l4.477-.602c.136.348.352.674.648.977s.686.546 1.17.727c.492.189 1.091.284 1.795.284 1.053 0 1.92-.258 2.602-.773.689-.508 1.034-1.36 1.034-2.557v-3.193h-.205c-.212.485-.53.943-.955 1.375s-.97.784-1.636 1.057-1.462.409-2.386.409c-1.311 0-2.504-.303-3.58-.909-1.068-.614-1.92-1.549-2.557-2.807-.629-1.265-.943-2.864-.943-4.795 0-1.977.322-3.629.966-4.955s1.5-2.318 2.568-2.977a6.639 6.639 0 0 1 3.534-.989c.977 0 1.795.167 2.455.5.659.326 1.189.735 1.591 1.227.409.485.724.962.943 1.432h.182V6.544h4.807v17.625c0 1.485-.364 2.727-1.091 3.727s-1.735 1.75-3.023 2.25c-1.28.508-2.754.761-4.42.761zm.102-10.795c.78 0 1.439-.193 1.977-.58.545-.394.962-.954 1.25-1.682.295-.735.443-1.614.443-2.636s-.144-1.909-.432-2.659c-.288-.758-.705-1.345-1.25-1.761s-1.208-.625-1.989-.625c-.795 0-1.466.216-2.011.648-.545.424-.958 1.015-1.239 1.773s-.42 1.633-.42 2.625c0 1.008.14 1.879.42 2.614.288.727.701 1.292 1.239 1.693.545.394 1.216.591 2.011.591zm20.239 4.227c-1.796 0-3.341-.364-4.636-1.091-1.288-.735-2.28-1.773-2.977-3.114-.697-1.348-1.045-2.943-1.045-4.784 0-1.795.348-3.371 1.045-4.727s1.678-2.413 2.943-3.171c1.273-.758 2.765-1.136 4.477-1.136 1.152 0 2.224.186 3.216.557 1 .364 1.871.913 2.614 1.648.75.735 1.333 1.659 1.75 2.773.417 1.106.625 2.402.625 3.886v1.33H60.223v-3h10.182c0-.697-.152-1.314-.454-1.852s-.724-.958-1.261-1.261c-.53-.311-1.148-.466-1.852-.466-.735 0-1.386.171-1.954.511-.561.333-1 .784-1.318 1.352a3.828 3.828 0 0 0-.489 1.875v2.852c0 .864.159 1.61.477 2.239.326.629.784 1.114 1.375 1.454s1.292.511 2.102.511c.538 0 1.03-.076 1.477-.227s.829-.379 1.148-.682c.318-.303.561-.674.727-1.114l4.478.295a6.115 6.115 0 0 1-1.398 2.818c-.697.795-1.599 1.417-2.705 1.864-1.099.439-2.367.659-3.807.659zm25.693-12.818-4.432.273a2.283 2.283 0 0 0-.489-1.023 2.59 2.59 0 0 0-.989-.739c-.401-.189-.882-.284-1.442-.284-.751 0-1.383.159-1.898.477-.515.31-.773.727-.773 1.25 0 .417.167.769.499 1.057.334.288.906.519 1.717.693l3.159.636c1.697.348 2.962.909 3.795 1.682s1.25 1.788 1.25 3.045c0 1.144-.337 2.148-1.011 3.011-.666.864-1.584 1.538-2.75 2.023-1.16.477-2.497.716-4.011.716-2.311 0-4.152-.481-5.523-1.443-1.363-.97-2.162-2.288-2.398-3.954l4.761-.25c.144.705.493 1.242 1.046 1.614.553.364 1.262.545 2.126.545.848 0 1.53-.163 2.045-.489.523-.333.789-.761.795-1.284-.007-.439-.193-.799-.557-1.08-.363-.288-.925-.508-1.681-.659l-3.023-.602c-1.705-.341-2.974-.932-3.807-1.773-.826-.841-1.239-1.913-1.239-3.216 0-1.121.303-2.087.909-2.898.614-.81 1.474-1.436 2.579-1.875 1.114-.439 2.417-.659 3.91-.659 2.205 0 3.939.466 5.205 1.398 1.273.932 2.015 2.201 2.227 3.807z"/>
    </symbol>
    <symbol id="stars" viewBox="0 0 192 32">
      <path stroke-width="1.6" d="M176 31.2c8.395 0 15.2-6.805 15.2-15.2S184.395.8 176 .8 160.8 7.605 160.8 16s6.805 15.2 15.2 15.2z"/>
      <path d="M176 32a16.002 16.002 0 0 1-14.782-22.123A16.002 16.002 0 0 1 176 0v32zM136 32c8.836 0 16-7.164 16-16s-7.164-16-16-16-16 7.163-16 16c0 8.836 7.164 16 16 16zM96 32c8.836 0 16-7.164 16-16S104.836 0 96 0 80 7.163 80 16c0 8.836 7.164 16 16 16zM56 32c8.836 0 16-7.164 16-16S64.836 0 56 0 40 7.163 40 16c0 8.836 7.164 16 16 16zM16 32c8.836 0 16-7.164 16-16S24.836 0 16 0C7.163 0 0 7.163 0 16s7.163 16 16 16z"/>
    </symbol>
    <symbol id="three-dots" viewBox="0 0 88 32">
      <path stroke-width="6" d="M16 12a4 4 0 1 1 0 8 4 4 0 0 1 0-8zM44 12a4 4 0 1 1 0 8 4 4 0 0 1 0-8zM72 12a4 4 0 1 1 0 8 4 4 0 0 1 0-8z"/>
    </symbol>
    <symbol id="twitter" viewBox="0 0 37 32">
      <path d="M33.469 7.75c1.458-1.094 2.771-2.406 3.792-3.938-1.313.583-2.844 1.021-4.375 1.167C34.49 4.031 35.657 2.573 36.24.75a16.177 16.177 0 0 1-4.812 1.896A7.657 7.657 0 0 0 25.813.24a7.655 7.655 0 0 0-7.656 7.656c0 .583.073 1.167.219 1.75A22.215 22.215 0 0 1 2.553 1.625C1.897 2.719 1.532 4.031 1.532 5.49a7.536 7.536 0 0 0 3.427 6.344c-1.24-.073-2.479-.365-3.5-.948v.073c0 3.719 2.625 6.781 6.125 7.51-.583.146-1.313.292-1.969.292-.51 0-.948-.073-1.458-.146.948 3.063 3.792 5.25 7.146 5.323-2.625 2.042-5.906 3.281-9.479 3.281-.656 0-1.24-.073-1.823-.146 3.354 2.188 7.365 3.427 11.74 3.427 14.073 0 21.729-11.594 21.729-21.729V7.75z"/>
    </symbol>
  </defs>
</svg>