<svg xmlns="http://www.w3.org/2000/svg" aria-hidden="true" style="position:absolute;width:0;height:0;overflow:hidden">
  <defs>
    <symbol id="basket" viewBox="0 0 32 32">
      <path d="M4.905 3.765H0V0h8.271l.845 7.529h21.002v11.178L7.096 23.283 4.906 3.764zM29.176 32a2.824 2.824 0 1 1 0-5.648 2.824 2.824 0 0 1 0 5.648zm-18.823 0a2.824 2.824 0 1 1 0-5.648 2.824 2.824 0 0 1 0 5.648z"/>
    </symbol>
    <symbol id="facebook" viewBox="0 0 19 32">
      <path d="m16.542 18.4.817-5.367h-5.192v-3.5c0-1.517.7-2.917 3.033-2.917h2.392V2.008s-2.158-.408-4.2-.408c-4.258 0-7.058 2.625-7.058 7.292v4.142H1.551v5.367h4.783v13.067h5.833V18.401h4.375z"/>
    </symbol>
    <symbol id="instagram" viewBox="0 0 30 32">
      <path d="M15.111 8.191c-4.222 0-7.587 3.431-7.587 7.587a7.547 7.547 0 0 0 7.587 7.587c4.156 0 7.587-3.365 7.587-7.587 0-4.156-3.431-7.587-7.587-7.587zm0 12.535a4.941 4.941 0 0 1-4.948-4.948c0-2.705 2.177-4.882 4.948-4.882a4.87 4.87 0 0 1 4.882 4.882c0 2.771-2.177 4.948-4.882 4.948zm9.632-12.799c0-.99-.792-1.781-1.781-1.781s-1.781.792-1.781 1.781.792 1.781 1.781 1.781c.99 0 1.781-.792 1.781-1.781zm5.014 1.781c-.132-2.375-.66-4.486-2.375-6.201s-3.826-2.243-6.201-2.375C18.74 1 11.417 1 8.976 1.132c-2.375.132-4.42.66-6.201 2.375C1.06 5.222.532 7.333.4 9.708c-.132 2.441-.132 9.764 0 12.205.132 2.375.66 4.42 2.375 6.201 1.781 1.715 3.826 2.243 6.201 2.375 2.441.132 9.764.132 12.205 0 2.375-.132 4.486-.66 6.201-2.375 1.715-1.781 2.243-3.826 2.375-6.201.132-2.441.132-9.764 0-12.205zM26.59 24.486c-.462 1.319-1.517 2.309-2.771 2.837-1.979.792-6.597.594-8.708.594-2.177 0-6.795.198-8.708-.594a5.003 5.003 0 0 1-2.837-2.837c-.792-1.913-.594-6.531-.594-8.708 0-2.111-.198-6.729.594-8.708a5.09 5.09 0 0 1 2.837-2.771c1.913-.792 6.531-.594 8.708-.594 2.111 0 6.729-.198 8.708.594 1.253.462 2.243 1.517 2.771 2.771.792 1.979.594 6.597.594 8.708 0 2.177.198 6.795-.594 8.708z"/>
    </symbol>
    <symbol id="linkedin" viewBox="0 0 32 32">
      <path d="M7.654 32V11.875h-6.26V32h6.26zM4.49 9.183c2.019 0 3.635-1.683 3.635-3.702 0-1.952-1.615-3.567-3.635-3.567-1.952 0-3.567 1.615-3.567 3.567 0 2.019 1.615 3.702 3.567 3.702zM31.01 32h.067V20.962c0-5.385-1.212-9.558-7.538-9.558-3.029 0-5.048 1.683-5.923 3.231h-.067v-2.76h-5.99V32h6.26v-9.962c0-2.625.471-5.115 3.702-5.115s3.298 2.962 3.298 5.317V32h6.192z"/>
    </symbol>
    <symbol id="logo" viewBox="0 0 109 32">
      <path fill="#f4f8ff" d="M32.018 25.6V6.982h7.345c1.412 0 2.615.27 3.609.809.994.533 1.752 1.276 2.273 2.227.527.945.791 2.036.791 3.273s-.267 2.327-.8 3.273c-.533.945-1.306 1.682-2.318 2.209-1.006.527-2.224.791-3.655.791h-4.682v-3.155h4.045c.758 0 1.382-.13 1.873-.391a2.589 2.589 0 0 0 1.109-1.1c.248-.473.373-1.015.373-1.627 0-.618-.124-1.158-.373-1.618a2.487 2.487 0 0 0-1.109-1.082c-.497-.261-1.127-.391-1.891-.391h-2.655v15.4h-3.936zm20.109.264c-.891 0-1.685-.155-2.382-.464a3.84 3.84 0 0 1-1.655-1.391c-.4-.618-.6-1.388-.6-2.309 0-.776.142-1.427.427-1.955s.673-.951 1.164-1.273a5.627 5.627 0 0 1 1.673-.727 12.74 12.74 0 0 1 1.982-.346 52.117 52.117 0 0 0 1.964-.236c.497-.079.858-.194 1.082-.345s.336-.376.336-.673v-.055c0-.576-.182-1.021-.545-1.336-.358-.315-.867-.473-1.527-.473-.697 0-1.251.155-1.664.464a2.131 2.131 0 0 0-.818 1.146l-3.582-.291a4.864 4.864 0 0 1 1.073-2.2c.533-.624 1.221-1.103 2.064-1.436.848-.339 1.83-.509 2.945-.509.776 0 1.518.091 2.227.273a5.853 5.853 0 0 1 1.9.845c.558.382.997.873 1.318 1.473.321.594.482 1.306.482 2.136V25.6h-3.673v-1.936h-.109a3.948 3.948 0 0 1-.9 1.155 4.17 4.17 0 0 1-1.355.773c-.527.182-1.136.273-1.827.273zm1.109-2.673c.57 0 1.073-.112 1.509-.336.436-.23.779-.539 1.027-.927s.373-.827.373-1.318v-1.482a2.078 2.078 0 0 1-.5.218 9.089 9.089 0 0 1-.7.173c-.261.048-.521.094-.782.136l-.709.1c-.455.067-.851.173-1.191.318s-.603.343-.791.591c-.188.242-.282.545-.282.909 0 .527.191.93.573 1.209.388.273.879.409 1.473.409zm16.05 7.936c-1.255 0-2.33-.173-3.227-.518-.891-.339-1.6-.803-2.127-1.391s-.87-1.248-1.027-1.982l3.582-.482c.109.279.282.539.518.782s.548.436.936.582c.394.151.873.227 1.436.227.842 0 1.536-.206 2.082-.618.552-.406.827-1.088.827-2.045v-2.555h-.164c-.17.388-.424.754-.764 1.1s-.776.627-1.309.845-1.17.327-1.909.327c-1.049 0-2.003-.242-2.864-.727-.855-.491-1.536-1.239-2.045-2.245-.503-1.012-.755-2.291-.755-3.836 0-1.582.258-2.903.773-3.964s1.2-1.855 2.055-2.382a5.313 5.313 0 0 1 2.827-.791c.782 0 1.436.133 1.964.4.527.261.951.588 1.273.982.327.388.579.77.755 1.145h.145v-2.345h3.846v14.1c0 1.188-.291 2.182-.873 2.982s-1.388 1.4-2.418 1.8c-1.024.406-2.203.609-3.536.609zm.082-8.636c.624 0 1.152-.154 1.582-.464.436-.315.77-.764 1-1.345.236-.588.355-1.291.355-2.109s-.115-1.527-.345-2.127c-.23-.606-.564-1.076-1-1.409s-.967-.5-1.591-.5c-.636 0-1.173.173-1.609.518-.436.339-.767.812-.991 1.418s-.336 1.306-.336 2.1c0 .806.112 1.503.336 2.091.23.582.561 1.033.991 1.355.436.315.973.473 1.609.473zm16.191 3.382c-1.436 0-2.673-.291-3.709-.873a5.981 5.981 0 0 1-2.382-2.491c-.558-1.079-.836-2.355-.836-3.827 0-1.436.279-2.697.836-3.782s1.342-1.93 2.355-2.536c1.018-.606 2.212-.909 3.582-.909.921 0 1.779.148 2.573.445.8.291 1.497.73 2.091 1.318.6.588 1.067 1.327 1.4 2.218.334.885.5 1.921.5 3.109v1.064H80.178v-2.4h8.145c0-.558-.121-1.052-.364-1.482s-.579-.767-1.009-1.009c-.424-.248-.918-.373-1.482-.373-.588 0-1.109.136-1.564.409-.448.267-.8.627-1.055 1.082a3.05 3.05 0 0 0-.391 1.5v2.282c0 .691.127 1.288.382 1.791.261.503.627.891 1.1 1.164s1.033.409 1.682.409c.43 0 .824-.061 1.182-.182s.664-.303.918-.545c.255-.242.449-.539.582-.891l3.582.236a4.901 4.901 0 0 1-1.118 2.255c-.558.636-1.279 1.133-2.164 1.491-.879.352-1.894.527-3.045.527zm20.555-10.255-3.546.218a1.824 1.824 0 0 0-.391-.818 2.08 2.08 0 0 0-.791-.591c-.321-.152-.706-.227-1.154-.227-.601 0-1.106.127-1.519.382-.412.248-.618.582-.618 1 0 .333.133.615.4.845s.725.415 1.373.555l2.527.509c1.358.279 2.37.727 3.036 1.345s1 1.43 1 2.436c0 .915-.27 1.718-.809 2.409-.533.691-1.267 1.23-2.2 1.618-.928.382-1.998.573-3.209.573-1.849 0-3.322-.385-4.419-1.155-1.091-.776-1.73-1.83-1.918-3.164l3.809-.2c.115.564.394.994.837 1.291.442.291 1.009.436 1.701.436.678 0 1.224-.13 1.636-.391.419-.267.631-.609.636-1.027-.005-.352-.154-.639-.445-.864-.291-.23-.74-.406-1.345-.527l-2.418-.482c-1.364-.273-2.379-.745-3.046-1.418-.661-.673-.991-1.53-.991-2.573 0-.897.242-1.67.727-2.318.491-.648 1.179-1.148 2.064-1.5.891-.352 1.934-.527 3.128-.527 1.764 0 3.152.373 4.164 1.118 1.019.745 1.612 1.761 1.782 3.046z" style="fill:var(--color1, #f4f8ff)"/>
      <path fill="#ffca42" d="M3.258 23.223H22.4V2.743H3.205C1.437 2.749.006 4.194 0 5.979v18.858h.001L0 24.861c0 1.888 1.468 3.483 3.205 3.483H22.4v-1.707H3.205c-.792 0-1.515-.846-1.515-1.776 0-.887.718-1.637 1.567-1.637zM5.072 4.467h5.072v9.217l-2.557-2.266-2.515 2.253V4.467zM1.691 5.992A1.53 1.53 0 0 1 3.206 4.45h.176v11.52h1.672l2.54-2.275 2.566 2.275h1.675V4.45h8.875v17.067H3.259c-.55 0-1.09.145-1.567.42V5.992h-.001z" style="fill:var(--color2, #ffca42)"/>
    </symbol>
    <symbol id="stars" viewBox="0 0 192 32">
      <path stroke-width="1.6" d="M176 31.2c8.395 0 15.2-6.805 15.2-15.2S184.395.8 176 .8 160.8 7.605 160.8 16s6.805 15.2 15.2 15.2z"/>
      <path d="M176 32a16.002 16.002 0 0 1-14.782-22.123A16.002 16.002 0 0 1 176 0v32zM136 32c8.836 0 16-7.164 16-16s-7.164-16-16-16-16 7.163-16 16c0 8.836 7.164 16 16 16zM96 32c8.836 0 16-7.164 16-16S104.836 0 96 0 80 7.163 80 16c0 8.836 7.164 16 16 16zM56 32c8.836 0 16-7.164 16-16S64.836 0 56 0 40 7.163 40 16c0 8.836 7.164 16 16 16zM16 32c8.836 0 16-7.164 16-16S24.836 0 16 0C7.163 0 0 7.163 0 16s7.163 16 16 16z"/>
    </symbol>
    <symbol id="three-dots" viewBox="0 0 88 32">
      <path stroke-width="6" d="M16 12a4 4 0 1 1 0 8 4 4 0 0 1 0-8zM44 12a4 4 0 1 1 0 8 4 4 0 0 1 0-8zM72 12a4 4 0 1 1 0 8 4 4 0 0 1 0-8z"/>
    </symbol>
    <symbol id="twitter" viewBox="0 0 37 32">
      <path d="M33.469 7.75c1.458-1.094 2.771-2.406 3.792-3.938-1.313.583-2.844 1.021-4.375 1.167C34.49 4.031 35.657 2.573 36.24.75a16.177 16.177 0 0 1-4.812 1.896A7.657 7.657 0 0 0 25.813.24a7.655 7.655 0 0 0-7.656 7.656c0 .583.073 1.167.219 1.75A22.215 22.215 0 0 1 2.553 1.625C1.897 2.719 1.532 4.031 1.532 5.49a7.536 7.536 0 0 0 3.427 6.344c-1.24-.073-2.479-.365-3.5-.948v.073c0 3.719 2.625 6.781 6.125 7.51-.583.146-1.313.292-1.969.292-.51 0-.948-.073-1.458-.146.948 3.063 3.792 5.25 7.146 5.323-2.625 2.042-5.906 3.281-9.479 3.281-.656 0-1.24-.073-1.823-.146 3.354 2.188 7.365 3.427 11.74 3.427 14.073 0 21.729-11.594 21.729-21.729V7.75z"/>
    </symbol>
  </defs>
</svg>